<?xml version="1.0" encoding="utf-8"?>
<!-- Generator: Adobe Illustrator 21.0.0, SVG Export Plug-In . SVG Version: 6.00 Build 0)  -->
<svg version="1.0" id="Layer_1" xmlns="http://www.w3.org/2000/svg" xmlns:xlink="http://www.w3.org/1999/xlink" x="0px" y="0px"
	 width="457px" height="156px" viewBox="0 0 457 156" style="enable-background:new 0 0 457 156;" xml:space="preserve">
<style type="text/css">
	.st0{fill-rule:evenodd;clip-rule:evenodd;fill:#E30613;}
	.st1{fill-rule:evenodd;clip-rule:evenodd;fill:#FFFFFF;}
	.st2{fill-rule:evenodd;clip-rule:evenodd;fill:#1D1D1B;}
</style>
<g>
	<g>
		<path class="st0" d="M52.6,129.7V58.1c0-2.4,0.6-15.7,11.6-24.2c10.3-8,20.8-8.2,26.1-8.4c4.9-0.2,10.3,1,10.3,1v70.3
			c0,7.6-4,19.1-13.3,25.8c-9.3,6.7-19.2,8-26.4,8C55.2,130.5,52.6,129.7,52.6,129.7z"/>
		<path class="st0" d="M0.5,129.7V58.1c0-2.4,0.6-15.7,11.6-24.2c10.3-8,20.8-8.2,26.1-8.4c4.9-0.2,10.3,1,10.3,1v70.3
			c0,7.6-4,19.1-13.3,25.8c-9.3,6.7-19.2,8-26.4,8C3.1,130.5,0.5,129.7,0.5,129.7z"/>
		<path class="st0" d="M105.1,129.7V58.1c0-2.4,0.6-15.7,11.6-24.2c10.3-8,20.8-8.2,26.1-8.4c4.9-0.2,10.3,1,10.3,1v70.3
			c0,7.6-4,19.1-13.3,25.8c-9.3,6.7-19.2,8-26.4,8C107.8,130.5,105.1,129.7,105.1,129.7z"/>
		<rect x="70.8" y="65.4" class="st1" width="11.5" height="38.9"/>
		<ellipse class="st1" cx="76.6" cy="57.5" rx="6.2" ry="5.7"/>
		<path class="st1" d="M28.3,65.6l12.9,0.3c0,0,1.8-13.4-17.5-13.4C11.4,52.5,6,60,6,66.7c0,3.5,1.4,9.2,11.1,13.2
			c9.7,4.1,12.1,8.5,12.1,11.9c0,3.3-4.1,4.2-5.8,4.2c-1.7,0-4.9-0.7-5-5.7H6.2c0,0-1.1,12.8,16.8,13.3
			c15.9,0.4,20.3-10.4,19.8-15.2C42.4,85.4,42,79.3,29.5,73C17,66.7,18.7,65.5,19,63c0.3-2.5,5-3.2,7.8-1.7
			C29.1,62.5,28.3,65.6,28.3,65.6z"/>
		<path class="st1" d="M133,65.6l12.9,0.3c0,0,1.8-13.4-17.5-13.4c-12.3,0-17.6,7.5-17.6,14.2c0,3.5,1.4,9.2,11.1,13.2
			c9.7,4.1,12.1,8.5,12.1,11.9c0,3.3-4.1,4.2-5.8,4.2c-1.7,0-4.9-0.7-5-5.7h-12.2c0,0-1.1,12.8,16.8,13.3
			c15.9,0.4,20.3-10.4,19.8-15.2c-0.3-2.9-0.8-8.9-13.3-15.2c-12.5-6.3-10.8-7.6-10.5-10.1c0.3-2.5,5-3.2,7.8-1.7
			C133.8,62.5,133,65.6,133,65.6z"/>
	</g>
	<g>
		<path class="st2" d="M160.7,102.3v-11c2.1,2,3.8,3,5.2,3c0.8,0,1.5-0.4,1.9-1.1c0.5-0.7,0.7-1.7,0.7-2.9c0-0.9-0.2-1.8-0.6-2.6
			c-0.4-0.8-1-1.8-2-3c-2.3-2.8-3.9-5.5-4.9-7.9c-1-2.4-1.5-5.1-1.5-8.1c0-4.1,0.8-7.4,2.4-10c1.6-2.6,3.6-3.9,6.1-3.9
			c1.8,0,3.7,0.6,5.5,1.9v10.6c-1.9-1.7-3.5-2.6-4.7-2.6c-0.8,0-1.4,0.3-1.9,1c-0.5,0.6-0.7,1.5-0.7,2.7c0,2,1.1,4.2,3.3,6.7
			c1.3,1.5,2.6,3.5,3.9,6.2c1.3,2.6,2,5.7,2,9.2c0,4.1-0.9,7.4-2.6,10.1c-1.7,2.7-4,4-6.6,4C164.3,104.4,162.5,103.7,160.7,102.3z"
			/>
		<path class="st2" d="M178.9,59c0-2.1,0.4-3.8,1.2-5.3c0.8-1.4,1.7-2.2,2.8-2.2c1.1,0,2.1,0.7,2.8,2.2c0.8,1.4,1.2,3.2,1.2,5.3
			c0,2-0.4,3.8-1.2,5.2c-0.8,1.5-1.7,2.2-2.8,2.2c-1.1,0-2-0.7-2.8-2.2C179.3,62.7,178.9,61,178.9,59z M179.6,70.7h6.2v32.5h-6.2
			V70.7z"/>
		<path class="st2" d="M189.9,102.3v-11c2,2,3.7,3,5.1,3c0.8,0,1.4-0.4,1.9-1.1c0.5-0.7,0.7-1.7,0.7-2.9c0-0.9-0.2-1.8-0.6-2.6
			c-0.4-0.8-1-1.8-1.9-3c-2.2-2.8-3.8-5.5-4.8-7.9c-1-2.4-1.5-5.2-1.5-8.1c0-4.1,0.8-7.4,2.3-10c1.5-2.6,3.5-3.9,6-3.9
			c1.8,0,3.6,0.6,5.4,1.9v10.6c-1.9-1.7-3.5-2.6-4.6-2.6c-0.8,0-1.4,0.3-1.9,1c-0.5,0.6-0.7,1.5-0.7,2.7c0,2,1.1,4.2,3.2,6.7
			c1.3,1.5,2.6,3.5,3.9,6.2c1.3,2.6,2,5.7,2,9.2c0,4.1-0.9,7.4-2.6,10.1c-1.7,2.7-3.9,4-6.5,4C193.5,104.4,191.7,103.7,189.9,102.3z
			"/>
		<polygon class="st2" points="207.1,56 223.1,56 223.1,66.8 218.5,66.8 218.5,103.2 211.7,103.2 211.7,66.8 207.1,66.8 		"/>
		<polygon class="st2" points="226.8,56.1 239.8,56.1 239.8,66.2 233.2,66.2 233.2,74.9 238.9,74.9 238.9,84.7 233.2,84.7 
			233.2,93.2 239.8,93.2 239.8,103.3 226.8,103.3 		"/>
		<path class="st2" d="M257.9,92.1v11.2c-1.2,0.7-2.3,1.1-3.2,1.1c-3.3,0-6-2.3-8-7c-2.1-4.7-3.1-10.8-3.1-18.4
			c0-7.1,1-12.9,3.1-17.5c2.1-4.6,4.7-6.9,7.8-6.9c1.2,0,2.4,0.3,3.4,0.9v11.2c-1.1-0.7-2.1-1-3.1-1c-1.5,0-2.7,1.3-3.7,3.8
			c-1,2.5-1.5,5.8-1.5,9.7c0,4.2,0.5,7.6,1.5,10.1c1,2.5,2.3,3.7,3.9,3.7C255.9,93.2,256.9,92.8,257.9,92.1z"/>
		<polygon class="st2" points="262,56.1 268.2,56.1 268.2,73.6 273.6,73.6 273.6,56.1 279.8,56.1 279.8,103.2 273.6,103.2 
			273.6,83.6 268.2,83.6 268.2,103.2 262,103.2 		"/>
		<polygon class="st2" points="292.4,56.1 298.6,56.1 298.6,78.3 298.7,78.3 304.6,56.1 311.2,56.1 304.8,80.2 310.9,103.2 
			304.1,103.2 298.7,83.7 298.6,83.7 298.6,103.2 292.4,103.2 		"/>
		<polygon class="st2" points="314.2,56.1 320.4,56.1 320.4,73.6 325.8,73.6 325.8,56.1 332,56.1 332,103.2 325.8,103.2 325.8,83.7 
			320.4,83.7 320.4,103.2 314.2,103.2 		"/>
		<path class="st2" d="M354.9,103.2h-5.9l-1-7.9h-6l-1,7.9h-5.8l6.7-47.1h6.4L354.9,103.2z M346.9,86.9c-0.9-7-1.5-13.7-1.9-20h-0.1
			c-0.5,6.5-1.1,13.2-1.9,20H346.9z"/>
		<path class="st2" d="M357.9,56.1h7.3c3,0,5.3,1.3,7,3.9c1.7,2.6,2.6,6.1,2.6,10.5c0,2.3-0.3,4.5-1,6.6c-0.7,2.1-1.6,3.7-2.8,4.8
			l5,21.2h-6.6l-5.1-21.4h-0.1v21.4h-6.3V56.1z M364.2,65.3v11.2c2.8-0.1,4.2-1.8,4.2-5c0-2.2-0.3-3.8-1-4.7
			C366.8,65.8,365.7,65.3,364.2,65.3z"/>
		<rect x="379.8" y="56" class="st2" width="7.5" height="47.2"/>
		<path class="st2" d="M391.5,102.3v-11c2,2,3.7,3,5.1,3c0.8,0,1.4-0.4,1.9-1.1c0.5-0.7,0.7-1.7,0.7-2.9c0-0.9-0.2-1.8-0.6-2.6
			c-0.4-0.8-1-1.8-1.9-3c-2.2-2.8-3.8-5.5-4.8-7.9c-1-2.4-1.5-5.2-1.5-8.1c0-4.1,0.8-7.4,2.3-10c1.5-2.6,3.5-3.9,6-3.9
			c1.8,0,3.6,0.6,5.4,1.9v10.6c-1.9-1.7-3.5-2.6-4.6-2.6c-0.8,0-1.4,0.3-1.9,1c-0.5,0.6-0.7,1.5-0.7,2.7c0,2,1.1,4.2,3.2,6.7
			c1.3,1.5,2.6,3.5,3.9,6.2c1.3,2.6,2,5.7,2,9.2c0,4.1-0.9,7.4-2.6,10.1c-1.7,2.7-3.9,4-6.5,4C395,104.4,393.2,103.7,391.5,102.3z"
			/>
		<path class="st2" d="M412.3,56.1h7.5c1.1,10.2,1.9,18.9,2.5,26.2l0.6-7.3c0.3-2.8,0.5-5.6,0.8-8.3l1.2-10.6h7.7l3,47.1h-5.9
			l-1.6-32.4l-3.7,32.4h-4l-3.9-32.5l-1.5,32.5h-5.7L412.3,56.1z"/>
		<path class="st2" d="M457,103.2h-5.9l-1-7.9h-6l-1,7.9h-5.8l6.6-47.2h6.3L457,103.2z M449.1,86.9c-0.8-7-1.5-13.7-1.9-20h-0.1
			c-0.4,6.5-1.1,13.2-1.9,20H449.1z"/>
	</g>
</g>
</svg>
